<svg xmlns="http://www.w3.org/2000/svg" width="186" height="146" fill="none" viewBox="0 0 186 146">
    <g clip-path="url(#a)">
        <path fill="#0BA9E0" d="M65.246 143.172c17.919 0 32.445-2.76 32.445-6.165 0-3.406-14.526-6.166-32.445-6.166-17.92 0-32.445 2.76-32.445 6.166 0 3.405 14.526 6.165 32.445 6.165zM108.066 20.591c-11.924-.414-23.28-4.277-34.125-8.502C63.096 7.864 52.355 3.184 40.716.946 33.231-.494 24.67-.7 18.64 3.323c-5.806 3.881-7.681 10.563-8.69 16.767-.758 4.669-1.204 9.583.874 13.954 1.444 3.035 4.005 5.586 5.778 8.493 6.166 10.114 1.807 22.586-4.873 32.461-3.132 4.632-6.771 9.057-9.19 13.983C.118 93.906-1 99.569 1.118 104.608c2.096 4.99 7.094 8.731 12.51 11.365 10.997 5.35 23.95 6.881 36.592 7.749 27.973 1.919 56.094 1.089 84.141.255 10.38-.306 20.805-.619 31.016-2.229 5.671-.894 11.524-2.314 15.642-5.74 5.225-4.349 6.52-11.713 3.018-17.165-5.874-9.15-22.109-11.42-26.22-21.237-2.259-5.404.061-11.422 3.346-16.433 7.045-10.751 18.853-20.183 19.474-32.47.428-8.44-5.249-16.891-14.026-20.885-9.199-4.187-21.958-3.66-28.742 3.27-6.992 7.126-19.273 9.87-29.803 9.503z" opacity=".1"/>
        <path fill="url(#b)" d="M98.592 66.86l-5.644-3.817 2.847-4.251-14.905-1.193-5.356 4.155-6.705-3.77-5.591.674-.067-1.478a41.844 41.844 0 0 0-.462-4.602c.024-.462.04-.993.038-1.57 0-2.43-.328-5.651-1.768-7.8l.331-2.99-2.69-3.188c.432-.863.925-1.694 1.474-2.488.093-.133.185-.262.284-.388 3.492-.253 6.246-3.133 6.246-6.654 0-.162 0-.325-.018-.486 0-.064-.013-.13-.02-.195.34.184.685.37 1.03.554.064.092.137.185.218.294l.017.02.103.128.033.038c.037.045.076.087.115.132l.025.03a7.298 7.298 0 0 0 .349.363l.138.13.038.035c.118.105.244.207.369.303l.04.03.159.109.051.033c.061.037.124.076.185.11l.022.014c.072.038.145.076.219.11l.037.015.184.078.057.02c.065.023.127.043.194.061l.04.012c.081.02.162.036.245.05h.01c.078.012.156.02.235.023h.054c.07.004.141.004.212 0h.046c.088-.005.176-.015.263-.031a2.902 2.902 0 0 0 1.16-.418c.09-.06.17-.134.237-.22.368-.484-.037-1.014-.037-1.014-.144-.344-1.076-.586-1.076-.586s-2.948-1.235-2.948-2.218c0-.983-.737-6.085-8.344-7.25 0 0-4.95-.28-6.34 2.378l-.03.31c-.409.257-.748.773-1.151.924a1.88 1.88 0 0 0-.5.185v-.035a.478.478 0 0 0-.112.146 1.484 1.484 0 0 0-.153.555 2.092 2.092 0 0 1-.352.84l-.03.05c.213.017.428-.018.626-.101a3.14 3.14 0 0 1-.185.74.61.61 0 0 0 .568-.34v-.016l.024-.033c.046-.086.084-.175.114-.268l-.02.022c.036-.12.07-.242.11-.36a.567.567 0 0 1 .09-.185.446.446 0 0 1 .382-.128l-.076 1.603h.033c-.044.116-.098.229-.162.336-.261.425-.737.716-.912 1.181a1.743 1.743 0 0 0-.084.699c0 .139.016.279.027.418v-.012c.026.37.033.721-.166 1.019-.136.203-.355.357-.43.588a.575.575 0 0 0-.028.2c.014.202.057.401.125.593v-.011c.046.14.057.29.031.436-.083.37-.53.678-.508 1.031a.4.4 0 0 0 .02.137.747.747 0 0 0 .416.37c.284.162.61.234.936.207a1.23 1.23 0 0 0 .35-.12 23.988 23.988 0 0 1-.46 1.003s-1.139-.763-1.785.793a3.459 3.459 0 0 0-.4 1.042c-.033.147-.078.29-.137.429a2.753 2.753 0 0 1-1.23 1.109c-1.32.606-6.648 7.273-6.742 9a10.1 10.1 0 0 1-.339 1.992 11.892 11.892 0 0 0-.317 4.71c.066.51.175 1.013.326 1.504.566 1.724.944 4.942.944 4.942l.611 5.585c-.022.771.01 1.543.1 2.309-.625.715-3.132 3.696-2.174 4.508.737.64 2.026.534 2.75.403-.61 1.513-1.57 4.145-1.696 5.953-.185 2.674.315 6.217 1.105 7.578.79 1.36 3.425 4.85 3.425 4.85s-.123 4.787.818 6.526c.942 1.739 1.321 5.347 1.321 5.347s.88 3.046.439 4.166c-.44 1.12.816 2.051-.503 2.796-1.32.745-3.007 17.533-3.007 17.533s-.68 11.003 0 11.563a.732.732 0 0 0 .116.068v3.697s-.472.776 1.446.933c1.314.105 5.038.344 7.247.482l1.711.107s4.053.81 5.844 0c1.791-.809 4.966-.791 4.494-2.929a6.106 6.106 0 0 0-.25-.856c-.518-1.327-1.397-1.478-3.017-1.848a9.154 9.154 0 0 0-.267-.054c-1.706-.297-2.266.499-3.222-.537-.831-.897-3.477-1.9-4.378-2.218.022-.067.05-.132.072-.2a1.344 1.344 0 0 1-.683-.335l2.44.156 1.454.09s3.446.69 4.975 0c1.53-.689 4.22-.671 3.818-2.487a5.243 5.243 0 0 0-.212-.729c-.44-1.127-1.189-1.251-2.565-1.563-.08-.017-.153-.034-.227-.047-1.45-.253-1.925.424-2.738-.456-.696-.75-2.894-1.591-3.684-1.878 0-.41-.553-.994-.901-1.58-.41-.684.346-3.078.346-3.078l.431-9.93c.164-.074.338-.123.516-.148 0 0 1.95-1.867 1.509-3.856a12.803 12.803 0 0 1-.14-1.816c.641-.597 1.524-1.479 1.774-2.022.41-.886 0-5.176 0-5.176V82.161l3.261.33 2.96.306.9.092 2.96.3 6.8.69 6.127-1.165 2.652-.503 5.451-1.035V67.794l5.644-.935zM53.709 22.517l-.38-.041c.125.005.258.03.38.04z"/>
        <path fill="#EFB7B9" d="M85.365 75.548c-1.842 2.645-8.466 1.244-8.466 1.244l-5.133-4.819-.69-.652 1.158-2.47s.369.102 1 .283c3.319.967 13.686 4.19 12.131 6.414z"/>
        <path fill="#000" d="M73.23 69.134c-.226.791-.847 1.976-1.464 2.84l-.69-.653 1.158-2.47s.372.102.997.283z" opacity=".1"/>
        <path fill="#DCE6F2" d="M55.627 41.289s-4.732 2.105-4.5 7.274c.167 3.33.529 6.649 1.084 9.937 0 0-.968 7.779 3.06 9.784 4.027 2.006 7.755 3.654 7.755 3.654s6.3.68 7.084.962c.783.28 3.23-4.015 2.778-4.684-.451-.67-6.235-2.072-6.972-3.188-.737-1.117-2.44-1.806-2.44-1.806s-1.76-1.068-1.88-2.033c-.12-.965.344-1.684.462-2.107.118-.423.417-4.51.417-4.51s1.986-14.546-6.849-13.283z"/>
        <path fill="#000" d="M58.75 58.287s-6.492 1.09-5.863 3.37c0 0 2.356-2.46 5.862-3.37zM58.8 59.209s-3.57 2.922-2.871 3.072c.698.15 2.87-3.072 2.87-3.072zM60.514 60.227s-.956 1.965-.368 1.832.368-1.831.368-1.831z" opacity=".1"/>
        <path fill="#000" d="M73.47 69.343l-.394-.112c.112-.37.144-.67.052-.808-.452-.67-6.231-2.07-6.967-3.188-.735-1.118-2.44-1.806-2.44-1.806s-1.76-1.068-1.88-2.033c-.12-.965.344-1.684.462-2.107.118-.423.417-4.512.417-4.512s1.98-14.544-6.854-13.281c0 0-4.731 2.107-4.501 7.276.167 3.33.53 6.649 1.085 9.937 0 0-.967 7.779 3.06 9.784 4.028 2.006 7.755 3.654 7.755 3.654s6.3.679 7.084.961c.297.108.833-.445 1.358-1.205l.299.28 5.133 4.816s6.623 1.403 8.466-1.242c1.556-2.225-8.81-5.449-12.135-6.414z" opacity=".1"/>
        <path fill="#965D7B" d="M52.903 21.885c-.18.036-.353.103-.51.198-.184.153-.184.416-.23.645-.054.319-.18.621-.369.883.21.016.42-.019.614-.101a3.176 3.176 0 0 1-.184.74.595.595 0 0 0 .552-.339c.098-.208.175-.426.23-.649a.535.535 0 0 1 .089-.185c.17-.201.485-.11.746-.085a1.222 1.222 0 0 0 1.12-.54c.279-.423.295-1.506-.368-1.62-.693-.115-1.124.843-1.69 1.053z"/>
        <g fill="#000" opacity=".1">
            <path d="M52.375 22.31c.016-.09.027-.184.047-.275-.175.154-.184.414-.23.645-.023.134-.06.264-.108.39.144-.232.243-.49.29-.76zM52.434 23.837a3.08 3.08 0 0 0 .184-.74 1.317 1.317 0 0 1-.584.102 2.14 2.14 0 0 1-.212.37c.209.016.418-.018.611-.1-.03.253-.092.502-.184.74a.597.597 0 0 0 .553-.339c.046-.084.083-.172.11-.264a.553.553 0 0 1-.478.231zM54.051 22.58c-.261-.025-.578-.116-.748.086a.57.57 0 0 0-.088.185 1.957 1.957 0 0 0-.045.148c.175-.14.46-.065.697-.041a1.228 1.228 0 0 0 1.12-.54c.056-.09.098-.188.124-.29a1.228 1.228 0 0 1-1.06.453z" opacity=".1"/>
        </g>
        <path fill="#DCE6F2" d="M58.45 37.15l2.809 3.39-.367 3.421-3.396-5.332.953-1.479z"/>
        <path fill="#000" d="M61.257 40.54l-.345 3.218-.022.203-3.064-4.813-.33-.519.096-.15.855-1.329.19.23 2.62 3.16z" opacity=".1"/>
        <path fill="#EFB7B9" d="M62.716 32.561c-.95.274-1.859 1.213-2.65 2.353a20.1 20.1 0 0 0-1.43 2.466c-.259.52-.487 1.022-.677 1.458l-.133.31c-.32.76-.499 1.268-.499 1.268s-7.278-5.49-6.126-5.859c.387-.124.895-.955 1.398-2.003l.063-.133c.319-.673.632-1.424.91-2.13.57-1.45.991-2.71.991-2.71s11.055 4.148 8.153 4.98z"/>
        <path fill="#444053" d="M67.07 27.271s1.68 3.05 3.937 2.634c2.257-.416 1.328-1.637 1.328-1.637l-5.265-.997z"/>
        <path fill="#A36468" d="M63.814 132.835c-1.489.682-4.855 0-4.855 0l-1.418-.089a551.465 551.465 0 0 1-6.018-.407c-1.592-.131-1.2-.785-1.2-.785v-3.953l7.723-1.963s3.053 1.048 3.889 1.963c.794.872 1.258.201 2.675.452.07.013.144.028.221.047 1.345.308 2.075.43 2.506 1.548.087.235.156.476.208.721.398 1.8-2.244 1.788-3.73 2.466z"/>
        <path fill="#000" d="M67.337 129.649a5.799 5.799 0 0 1-.87.447c-1.013.464-1.977 1.03-3.001 1.468-1.024.438-2.128.75-3.237.667-.58-.043-1.174-.185-1.728-.019a4.012 4.012 0 0 0-.96.534 554.618 554.618 0 0 1-6.018-.406c-1.592-.131-1.2-.786-1.2-.786v-.462c.056 0 .12-.016.194-.022.382-.006.761.051 1.124.168.8.218 1.596.433 2.395.647a1.892 1.892 0 0 1 .922-1.179 2.93 2.93 0 0 1 1.485-.342c1.24.017 2.413.606 3.651.665.346.032.695-.026 1.012-.17.17-.085.319-.208.484-.303a3.52 3.52 0 0 1 .835-.283c.812-.202 1.61-.46 2.386-.772.221-.087.479-.244.45-.481-.04-.314-.531-.351-.66-.639a.37.37 0 0 1 .015-.327c.07.013.143.027.22.046 1.34.309 2.07.431 2.5 1.549z" opacity=".1"/>
        <path fill="#A36468" d="M62.24 141.484c-1.75.802-5.71 0-5.71 0l-1.668-.098c-2.16-.138-5.796-.369-7.08-.478-1.874-.156-1.414-.925-1.414-.925v-4.659l9.089-2.31s3.593 1.232 4.576 2.31c.935 1.026 1.474.237 3.15.532.082.015.169.034.259.054 1.583.37 2.441.508 2.948 1.824.103.276.184.56.245.848.457 2.119-2.644 2.102-4.394 2.902z"/>
        <path fill="#000" d="M66.386 137.735a6.89 6.89 0 0 1-1.022.527c-1.192.545-2.327 1.21-3.532 1.726s-2.504.881-3.81.785c-.682-.05-1.38-.221-2.027-.022a4.667 4.667 0 0 0-1.133.636c-2.16-.139-5.796-.37-7.08-.479-1.874-.155-1.414-.924-1.414-.924v-.543c.077-.013.153-.021.23-.026.45-.008.897.058 1.323.198l2.818.761a2.24 2.24 0 0 1 1.092-1.388 3.434 3.434 0 0 1 1.748-.403c1.46.02 2.84.714 4.297.784.406.037.815-.031 1.187-.198.2-.102.368-.248.57-.357.312-.153.642-.265.983-.332.95-.241 1.883-.545 2.793-.91.26-.103.564-.288.529-.565-.046-.37-.625-.414-.778-.754a.451.451 0 0 1 .019-.385c.082.015.17.033.26.054 1.582.355 2.44.499 2.947 1.815z" opacity=".1"/>
        <path fill="#444053" d="M58.28 109.512l-.492 11.612s-.737 2.372-.338 3.05c.4.678 1.075 1.355.83 1.756s-3.193 4.737-4.146 3.074c-.953-1.664-1.892-8.872-1.892-8.872l.879-8.903 5.158-1.717zM60.413 80.58l1.367 1.833v15.946s.4 4.251 0 5.129c-.4.878-2.426 2.634-2.426 2.634l-1.705-8.78.369-9.287 2.395-7.476z"/>
        <path fill="#000" d="M58.28 109.512l-.492 11.612s-.737 2.372-.338 3.05c.4.678 1.075 1.355.83 1.756s-3.193 4.737-4.146 3.074c-.953-1.664-1.892-8.872-1.892-8.872l.879-8.903 5.158-1.717zM60.413 80.58l1.367 1.833v15.946s.4 4.251 0 5.129c-.4.878-2.426 2.634-2.426 2.634l-1.705-8.78.369-9.287 2.395-7.476z" opacity=".1"/>
        <path fill="#444053" d="M61.78 73.778v8.625l-1.535 6.715s-.491 16.204-.062 18.174c.43 1.97-1.474 3.821-1.474 3.821s-1.106.123-1.106.985c0 .861-1.842 3.327-1.842 3.327l.06 4.805s.8 8.996-.428 10.72c-1.23 1.724.429 1.972.429 1.972-1.535 5.051-8.905 3.881-9.57 3.327-.665-.554 0-11.459 0-11.459s1.647-16.635 2.937-17.374c1.29-.739.063-1.663.492-2.772.43-1.109-.43-4.128-.43-4.128s-.368-3.574-1.289-5.299c-.921-1.724-.8-6.468-.8-6.468s-2.579-3.451-3.346-4.806c-.766-1.355-1.26-4.866-1.076-7.517.126-1.79 1.064-4.399 1.659-5.9.285-.718.492-1.184.492-1.184l.175.046 10.063 2.643 6.651 1.747z"/>
        <path fill="#000" d="M62.716 32.56c-.95.274-1.859 1.213-2.65 2.353h-.206a6.565 6.565 0 0 1-3.3-.887A6.592 6.592 0 0 1 54.15 31.6a6.516 6.516 0 0 1-.579-1.321c.57-1.451.992-2.712.992-2.712s11.056 4.163 8.154 4.994z" opacity=".1"/>
        <path fill="#EFB7B9" d="M66.447 27.94a6.626 6.626 0 0 1-2.558 5.239 6.576 6.576 0 0 1-5.698 1.164 6.58 6.58 0 0 1-4.397-3.817 6.626 6.626 0 0 1 1.027-6.833 6.57 6.57 0 0 1 10.525.573 6.621 6.621 0 0 1 1.092 3.19c.004.163.009.324.009.485z"/>
        <path fill="#000" d="M60.912 43.757l-.022.204-3.064-4.806c-.32.76-.499 1.268-.499 1.268s-7.278-5.497-6.126-5.867c.387-.123.895-.955 1.398-2.003l.063-.133c.534 1.597 3.639 4.789 4.93 6.068.15.148.273.27.369.358l.197.185.103.104c.47.486 2.452 2.63 2.651 4.622z" opacity=".1"/>
        <path fill="#DCE6F2" d="M63.203 60.063l-.336 10.826-.059 1.928s-3.972-.37-7.679-.777c-2.985-.327-5.798-.68-6.231-.887-.553-.26-1.738-.462-2.672-.59-.722-.097-1.29-.15-1.29-.15s-.211.064-.537.123c-.712.13-1.96.234-2.688-.4-.93-.81 1.514-3.759 2.124-4.467l.134-.153-.23-2.135-.599-5.535s-.368-3.189-.92-4.898a9.063 9.063 0 0 1-.32-1.488c-.205-1.562-.1-3.148.31-4.669.175-.646.286-1.308.332-1.976.092-1.71 5.297-8.317 6.586-8.917a2.738 2.738 0 0 0 1.32-1.32c.09-.183.157-.376.2-.575.553-2.403 1.951-1.449 1.951-1.449.338 1.88 5.557 6.855 5.557 6.855l.103.104c.518.532 2.825 3.03 2.66 5.164a6.28 6.28 0 0 0 .349 2.336 39.618 39.618 0 0 1 1.815 10.35l.12 2.7z"/>
        <path fill="#000" d="M55.807 47.208s-1.29 3.142-2.257 3.65c-.967.509 2.718 1.072 2.257-3.65zM56.774 53.077s-2.948.37-2.948.924c0 .555 2.948-.924 2.948-.924zM59.86 56.68s-4.283 9.15-5.48 9.427c-1.198.277 5.48-9.426 5.48-9.426zM58.075 39.873l-3.543 1.545-4.276-6.48c.09-.183.157-.376.2-.575.553-2.402 1.952-1.449 1.952-1.449.337 1.88 5.556 6.855 5.556 6.855l.111.104z" opacity=".1"/>
        <path fill="#DCE6F2" d="M58.26 39.503l-3.544 1.545-4.276-6.48c.09-.183.157-.376.2-.575.554-2.403 1.952-1.449 1.952-1.449.337 1.88 5.557 6.855 5.557 6.855l.11.104z"/>
        <path fill="#000" d="M62.808 72.816s-3.972-.37-7.679-.776l6.651 1.747v2.033c-.291.264-.543.4-.707.33-.767-.323-7.022-1.34-7.022-1.34s-3.633-1.848-7.554-4.066a4.363 4.363 0 0 1-1.437-1.34c-.724-1.051-1.078-2.402-1.23-3.727a16.165 16.165 0 0 1-.096-2.289c.019-.866.097-1.73.235-2.585a85.298 85.298 0 0 1-.552-9.981c.046-5.175 4.882-7.023 4.882-7.023 8.89-.786 6.133 13.63 6.133 13.63s-.514 4.067-.654 4.482c-.14.416-.642 1.11-.574 2.08.068.97 1.767 2.13 1.767 2.13s1.658.78 2.341 1.936c.498.852 3.73 2.007 5.555 2.832l-.059 1.927zM65.786 23.837c.003.305-.06.606-.185.884a5.465 5.465 0 0 1-.328.658 3.03 3.03 0 0 1-.807 1.005c-.425.305-.963.39-1.473.514-.51.124-1.041.322-1.333.758-.157.28-.263.587-.311.905-.049.318-.175.62-.368.876a.724.724 0 0 1-.863.207.874.874 0 0 1-.333-.43c-.21-.475-.264-1.002-.348-1.514-.085-.512-.205-1.039-.518-1.45-.313-.413-.868-.685-1.36-.524a1.31 1.31 0 0 0-.737.717c-.136.327-.23.67-.278 1.02a58.51 58.51 0 0 1-.809 3.741.344.344 0 0 1-.06.14.265.265 0 0 1-.185.078c-.413.056-.809-.234-1.225-.203a.7.7 0 0 0-.127.02 6.621 6.621 0 0 1 .665-7.54l.033-.01c.277-.098.529-.257.737-.465.266-.268.512-.553.737-.856l.147-.185a8.414 8.414 0 0 1 1.438-1.37c.144-.119.31-.21.49-.266.153-.03.31-.035.464-.015.636.077 1.278.101 1.918.073.446-.07.895-.117 1.347-.137 1.166.033 2.16.86 2.898 1.765.396.464.75.998.774 1.604z" opacity=".1"/>
        <path fill="#965D7B" d="M53.264 24.878c-.256.422-.718.708-.891 1.17-.255.671.175 1.507-.22 2.105-.13.202-.346.352-.42.583-.125.39.218.805.13 1.207-.089.4-.616.739-.476 1.13.083.172.228.304.405.37.28.161.6.233.922.205.503-.083.877-.578 1.387-.615.415-.03.81.259 1.223.205a.276.276 0 0 0 .185-.08.321.321 0 0 0 .06-.14c.31-1.238.58-2.485.811-3.74.047-.351.14-.694.276-1.02a1.324 1.324 0 0 1 .737-.718c.492-.159 1.045.11 1.36.523.315.412.435.939.52 1.45.084.513.138 1.04.346 1.515.063.176.18.327.335.432.277.161.649.033.86-.207a1.93 1.93 0 0 0 .37-.878c.047-.318.153-.624.31-.904.292-.436.824-.634 1.333-.757.508-.124 1.044-.211 1.474-.516.337-.273.612-.615.807-1.004.272-.476.526-.994.504-1.543-.024-.599-.377-1.133-.755-1.599-.737-.905-1.734-1.732-2.9-1.763-.451.019-.9.065-1.347.137-.64.029-1.282.004-1.918-.074a1.504 1.504 0 0 0-.464.017 1.389 1.389 0 0 0-.488.266 8.421 8.421 0 0 0-1.44 1.367c-.273.364-.57.71-.887 1.035-.209.209-.46.369-.737.468-.184.052-.369.015-.544.072-.543.172-.615.884-.867 1.301z"/>
        <path fill="#000" d="M71.007 29.903c-1.474.272-2.696-.924-3.372-1.796a7.238 7.238 0 0 1-.565-.835l5.059.957.204.039s.931 1.221-1.326 1.635z" opacity=".1"/>
        <g fill="#000" opacity=".1">
            <path d="M51.862 29.414a1.544 1.544 0 0 0-.107-.71c0 .019-.016.037-.022.056-.079.247.028.504.096.761a.564.564 0 0 0 .033-.107zM52.3 26.389c-.018.255-.013.512.016.767a4.13 4.13 0 0 0-.015-.767zM65.097 24.66a3.03 3.03 0 0 1-.807 1.005c-.426.305-.962.39-1.474.514-.513.124-1.041.322-1.333.758a2.67 2.67 0 0 0-.31.906c-.049.319-.175.62-.37.878-.211.24-.583.37-.86.206a.883.883 0 0 1-.335-.432c-.208-.475-.264-1-.346-1.514-.083-.514-.207-1.038-.52-1.45-.313-.413-.868-.684-1.36-.524a1.314 1.314 0 0 0-.737.717c-.136.327-.229.67-.276 1.02a58.98 58.98 0 0 1-.81 3.742.321.321 0 0 1-.061.14.276.276 0 0 1-.185.08c-.413.053-.809-.235-1.223-.206-.51.037-.885.533-1.388.614a1.553 1.553 0 0 1-.92-.205.986.986 0 0 1-.338-.24.5.5 0 0 0-.068.43.72.72 0 0 0 .405.37c.279.162.6.234.922.205.502-.081.877-.577 1.387-.614.414-.03.81.26 1.223.206a.276.276 0 0 0 .184-.08.321.321 0 0 0 .061-.14c.31-1.232.58-2.48.81-3.741.048-.351.14-.694.277-1.02a1.319 1.319 0 0 1 .737-.718c.492-.16 1.045.111 1.36.523.315.413.435.94.52 1.451.084.512.138 1.04.346 1.514.063.176.18.328.335.433.277.16.649.033.86-.207.195-.258.321-.56.37-.878a2.67 2.67 0 0 1 .31-.906c.292-.436.824-.632 1.333-.758.508-.126 1.044-.209 1.474-.514a3.03 3.03 0 0 0 .806-1.005c.273-.475.527-.993.505-1.541a1.985 1.985 0 0 0-.022-.211 3.638 3.638 0 0 1-.482 1.192z" opacity=".1"/>
        </g>
        <path fill="#000" d="M65.609 24.715c.472.843.752 1.78.82 2.745-1.642-.925-3.186-1.94-3.965-2.292-1.358-.616-6.436-.523-8.345-.466a6.669 6.669 0 0 1 2.216-2.344 6.576 6.576 0 0 1 9.283 2.353l-.01.004zM71.468 29.12c-.887.273-2.333-.255-3.833-1.013a7.238 7.238 0 0 1-.565-.835l5.059.957c.335.23.42.556-.661.89z" opacity=".1"/>
        <path fill="#444053" d="M60.253 18.307s-4.837-.277-6.196 2.357l-.22 2.334-.368-.04-.074 1.587s7.392-.323 9.074.438c1.682.762 6.91 4.599 9.004 3.952 2.095-.647-.184-1.248-.184-1.248s-2.883-1.225-2.883-2.186c0-.961-.715-6.039-8.153-7.194z"/>
        <path fill="#000" d="M50.925 104.843s3.086 3.003 4.421 2.772c0 0-3.777-.323-4.421-2.772zM50.28 106.234s.276 1.546 1.013 1.394c.737-.152-1.013-1.394-1.013-1.394zM55.116 132.059s-4.381 3.419-3.642 3.511c.738.093 3.642-3.511 3.642-3.511z" opacity=".1"/>
        <path fill="#0BA9E0" d="M60.977 64.196l14.187-2.316v13.474l-13.48-.708-.707-10.45z"/>
        <path fill="#000" d="M60.977 64.196l14.187-2.316v13.474l-13.48-.708-.707-10.45z" opacity=".05"/>
        <path fill="#0BA9E0" d="M75.163 61.88l17.013 1.277-.941 11.725-16.072.472V61.88z"/>
        <path fill="#000" d="M75.163 61.88l17.013 1.277-.941 11.725-16.072.472V61.88z" opacity=".1"/>
        <path fill="#0BA9E0" d="M80.394 57.768l-5.23 4.112 17.013 1.277 2.78-4.208-14.563-1.181z"/>
        <path fill="#0BA9E0" d="M55.84 59.705l12.772-1.56 6.552 3.735-14.187 2.316-5.137-4.491z"/>
        <path fill="#0BA9E0" d="M78.273 65.378V83.8l-6.645-.684-2.89-.296-.882-.092-2.888-.298-3.991-.41V64.195l14.185.969 3.111.214zM92.176 63.157v17.965l-5.326 1.026-2.59.5-5.987 1.153V65.379l13.903-2.222z"/>
        <path fill="#000" d="M92.176 63.157v17.965l-5.326 1.026-2.59.5-5.987 1.153V65.379l13.903-2.222z" opacity=".05"/>
        <path fill="#0BA9E0" d="M55.84 68.073l5.137-3.878 17.297 1.183-2.547 4.303-19.887-1.608z"/>
        <path fill="#fff" d="M55.84 68.073l5.137-3.878 17.297 1.183-2.547 4.303-19.887-1.608z" opacity=".1"/>
        <path fill="#0BA9E0" d="M92.176 63.157L78.273 65.38l4.526 4.066 14.892-2.506-5.515-3.782z"/>
        <path fill="#fff" d="M92.176 63.157L78.273 65.38l4.526 4.066 14.892-2.506-5.515-3.782zM86.85 82.148l-2.59.499v-3.839l2.426-.614.164 3.954zM71.628 80.577v2.54l-2.89-.296v-2.244h2.89zM67.856 81.377v1.351l-2.888-.297v-1.054h2.888z" opacity=".1"/>
        <path fill="#000" d="M76.534 79.23c-1.98 2.541-8.52.785-8.52.785l-4.861-5.086-.66-.69 1.29-2.402s.368.122.984.336c3.257 1.142 13.435 4.918 11.767 7.057z" opacity=".1"/>
        <path fill="#EFB7B9" d="M76.35 78.86c-1.98 2.541-8.521.785-8.521.785l-4.86-5.086-.66-.69 1.29-2.402s.368.122.983.336c3.258 1.142 13.435 4.918 11.768 7.057z"/>
        <path fill="#000" d="M64.575 71.803c-.269.776-.952 1.926-1.614 2.756l-.66-.69 1.29-2.402s.37.122.984.336z" opacity=".1"/>
        <path fill="#DCE6F2" d="M48.483 43.059s-4.836 1.848-4.882 7.023a85.3 85.3 0 0 0 .553 9.981s-1.382 7.717 2.533 9.934a213.382 213.382 0 0 0 7.554 4.067s6.255 1.016 7.023 1.34c.769.323 3.438-3.835 3.024-4.529-.415-.693-6.11-2.402-6.786-3.558-.676-1.155-2.342-1.933-2.342-1.933s-1.698-1.162-1.767-2.133c-.068-.97.433-1.663.575-2.079.142-.416.656-4.482.656-4.482s2.75-14.426-6.14-13.631z"/>
        <path fill="#000" d="M50.694 60.192s-6.54.74-6.034 3.05c0 0 2.486-2.33 6.034-3.05zM50.694 61.116s-3.712 2.726-3.03 2.911c.681.185 3.03-2.91 3.03-2.91zM52.352 62.226s-1.059 1.91-.46 1.81c.599-.099.46-1.81.46-1.81z" opacity=".1"/>
        <path fill="#0BA9E0" d="M120.452 20.773s-7.001-.424-6.183 4.504c0 0-.164.87.623 1.266 0 0 .013-.37.718-.242.252.042.507.055.761.037.345-.023.672-.159.932-.386 0 0 1.97-.816 2.736-4.046 0 0 .568-.706.553-.887l-1.183.508s.404.856.085 1.567c0 0-.037-1.536-.265-1.5-.046 0-.614.297-.614.297s.695 1.49.17 2.575c0 0 .199-1.838-.387-2.468l-.833.488s.813 1.54.262 2.796c0 0 .142-1.927-.437-2.678l-.755.59s.764 1.52.298 2.562c0 0-.061-2.244-.462-2.414 0 0-.66.584-.759.824 0 0 .521 1.11.197 1.684 0 0-.199-1.495-.369-1.503 0 0-.658.991-.726 1.664a3.604 3.604 0 0 1 .566-1.764 1.971 1.971 0 0 0-1.006.524s.101-.7 1.168-.762c0 0 .553-.752.689-.798 0 0-1.061-.09-1.704.197 0 0 .566-.66 1.899-.37l.737-.61s-1.396-.184-1.989.021c0 0 .681-.584 2.19-.159l.811-.486s-1.19-.259-1.9-.164c0 0 .748-.405 2.138.033l.58-.26s-.873-.173-1.128-.2c-.254-.028-.269-.098-.269-.098a3.006 3.006 0 0 1 1.638.184s1.244-.449 1.218-.526z"/>
        <path fill="#0BA9E0" d="M141.725 45.417s-7.001-.423-6.183 4.505c0 0-.164.87.622 1.266 0 0 .013-.37.721-.242.251.042.506.054.761.036.34-.024.663-.16.921-.384 0 0 1.971-.817 2.738-4.048 0 0 .565-.704.543-.885l-1.183.506s.404.856.087 1.568c0 0-.039-1.536-.265-1.501-.046 0-.616.297-.616.297s.697 1.492.172 2.575c0 0 .199-1.837-.389-2.467l-.824.482s.813 1.54.262 2.797c0 0 .142-1.928-.437-2.679l-.753.592s.762 1.517.298 2.56c0 0-.061-2.244-.462-2.414 0 0-.66.584-.761.824 0 0 .523 1.11.199 1.684 0 0-.199-1.495-.369-1.503 0 0-.657.991-.726 1.664a3.617 3.617 0 0 1 .568-1.764 1.98 1.98 0 0 0-1.008.523s.103-.7 1.17-.76c0 0 .544-.753.689-.8 0 0-1.061-.088-1.704.198 0 0 .565-.66 1.898-.36l.736-.61s-1.398-.185-1.989.02c0 0 .681-.584 2.19-.159l.811-.486s-1.192-.257-1.901-.164c0 0 .749-.405 2.139.033l.58-.26s-.873-.172-1.129-.2c-.256-.028-.269-.098-.269-.098a3.008 3.008 0 0 1 1.639.185s1.246-.453 1.224-.53zM99.192 41.043s1.613-6.856-3.37-6.88c0 0-.827-.31-1.348.4 0 0 .355.075.114.752-.083.239-.139.487-.166.74-.035.343.042.688.22.984 0 0 .466 2.089 3.5 3.397 0 0 .597.68.778.688l-.295-1.255s-.91.253-1.555-.185c0 0 1.516.224 1.518 0 0-.046-.184-.658-.184-.658s-1.583.433-2.56-.272c0 0 1.771.51 2.492.04l-.332-.91s-1.658.541-2.793-.218c0 0 1.87.47 2.706.026l-.451-.847s-1.621.495-2.566-.142c0 0 2.21.321 2.45-.045 0 0-.46-.752-.68-.892 0 0-1.172.329-1.688-.09 0 0 1.502.056 1.537-.102 0 0-.86-.82-1.516-1.004.611.14 1.175.436 1.638.861a1.998 1.998 0 0 0-.343-1.085s.67.222.553 1.294c0 0 .645.666.665.817 0 0 .267-1.033.096-1.719 0 0 .552.673.03 1.939l.473.84s.427-1.348.318-1.97c0 0 .46.773-.217 2.193l.34.885s.456-1.135.485-1.848c0 0 .271.81-.398 2.109l.159.617s.317-.834.387-1.081c.07-.248.142-.25.142-.25a3.034 3.034 0 0 1-.46 1.59s.242 1.29.321 1.28zM83.86 43.379s-5.623-4.22-7.633.351c0 0-.614.638-.174 1.401 0 0 .21-.297.737.196.187.174.394.326.616.451.3.168.648.233.99.185 0 0 2.092.405 4.502-1.87 0 0 .86-.278.942-.44l-1.27-.224s-.133.937-.787 1.356c0 0 .81-1.304.6-1.399-.043-.02-.677-.092-.677-.092s-.236 1.63-1.268 2.246c0 0 1.174-1.425 1.028-2.276l-.963-.051s-.164 1.735-1.314 2.482c0 0 1.174-1.532 1.106-2.479l-.955.078s-.193 1.688-1.153 2.301c0 0 1.177-1.907.936-2.27 0 0-.872.124-1.087.268 0 0-.168 1.21-.757 1.516 0 0 .654-1.358.521-1.453 0 0-1.093.464-1.522.993a3.6 3.6 0 0 1 1.44-1.16 1.978 1.978 0 0 0-1.127-.12s.468-.528 1.393.01c0 0 .866-.327 1.014-.286 0 0-.839-.66-1.533-.775 0 0 .836-.24 1.785.74l.956-.099s-1.063-.924-1.673-1.079c0 0 .89-.113 1.916 1.074l.944.042s-.853-.872-1.496-1.186c0 0 .845.074 1.767 1.207l.628.101s-.636-.624-.835-.787c-.199-.163-.171-.231-.171-.231a3.03 3.03 0 0 1 1.27 1.057s1.28.298 1.304.222zM102.581 4.175s-5.624-4.222-7.634.35c0 0-.613.639-.173 1.402 0 0 .21-.298.737.196.188.173.395.324.617.449.301.168.649.233.99.185 0 0 2.093.405 4.503-1.873 0 0 .86-.275.939-.44l-1.269-.22s-.131.938-.787 1.357c0 0 .811-1.305.601-1.399-.043-.02-.676-.092-.676-.092s-.244 1.634-1.275 2.245c0 0 1.171-1.425 1.028-2.275l-.964-.052s-.166 1.736-1.314 2.48c0 0 1.174-1.531 1.106-2.478l-.953.078s-.195 1.69-1.155 2.303c0 0 1.18-1.908.938-2.27 0 0-.871.124-1.087.268 0 0-.168 1.209-.757 1.516 0 0 .654-1.359.521-1.455 0 0-1.092.466-1.522.995.371-.507.868-.907 1.441-1.161-.357-.15-.75-.191-1.13-.118 0 0 .47-.53 1.395.009 0 0 .866-.33 1.014-.287 0 0-.839-.66-1.533-.776 0 0 .834-.238 1.783.74l.957-.099s-1.062-.924-1.673-1.08c0 0 .89-.112 1.918 1.075l.943.04s-.853-.872-1.498-1.184c0 0 .848.074 1.769 1.207l.626.101s-.637-.617-.836-.776c-.2-.159-.172-.23-.172-.23.513.228.953.594 1.27 1.058 0 0 1.28.281 1.312.21zM124.067 9.522s-2.248-6.674-6.487-4.051c0 0-.866.185-.934 1.055 0 0 .341-.125.492.577.056.25.14.492.252.723.152.31.4.562.708.719 0 0 1.496 1.524 4.768 1.02 0 0 .864.262 1.022.172l-.921-.908s-.637.697-1.415.67c0 0 1.406-.614 1.29-.812-.024-.039-.505-.458-.505-.458s-1.117 1.207-2.314 1.127c0 0 1.77-.506 2.132-1.294l-.763-.59s-1.117 1.335-2.486 1.294c0 0 1.843-.593 2.309-1.413l-.829-.48s-1.106 1.282-2.252 1.241c0 0 2.049-.9 2.055-1.336 0 0-.787-.394-1.047-.398 0 0-.822.9-1.474.82 0 0 1.305-.75 1.249-.903 0 0-1.16-.238-1.814-.046a3.578 3.578 0 0 1 1.842-.139 1.991 1.991 0 0 0-.864-.739s.685-.168 1.144.8c0 0 .899.224.995.34 0 0-.317-1.018-.824-1.51 0 0 .824.28 1.049 1.63l.844.463s-.349-1.37-.769-1.849c0 0 .798.414.971 1.976l.756.571s-.21-1.205-.564-1.83c0 0 .656.544.774 2.002l.458.44s-.169-.876-.239-1.124c-.07-.247-.013-.264-.013-.264.293.48.448 1.03.448 1.593 0 0 .891.96.956.911zM109.398 9.851s-6.983-.78-6.407 4.19c0 0-.208.861.553 1.294 0 0 .032-.37.737-.203.25.053.504.079.759.075a1.58 1.58 0 0 0 .949-.338s2.01-.715 2.948-3.903c0 0 .601-.675.588-.858l-1.207.447s.368.875 0 1.57c0 0 .039-1.536-.184-1.512-.046 0-.629.266-.629.266s.619 1.525.041 2.587c0 0 .291-1.826-.264-2.484l-.856.444s.737 1.58.12 2.807c0 0 .239-1.918-.301-2.696l-.783.554s.686 1.555.168 2.573c0 0 .053-2.244-.339-2.434 0 0-.689.554-.802.784 0 0 .466 1.127.115 1.69 0 0-.124-1.502-.286-1.517 0 0-.707.956-.811 1.63.064-.625.29-1.223.656-1.733a1.982 1.982 0 0 0-1.032.471s.137-.693 1.205-.7c0 0 .581-.723.737-.762 0 0-1.055-.142-1.713.111 0 0 .599-.632 1.914-.264l.776-.571s-1.402-.285-1.995-.1c0 0 .711-.555 2.196-.046l.834-.446s-1.177-.318-1.89-.26c0 0 .768-.37 2.134.142l.593-.231s-.864-.216-1.119-.257c-.254-.04-.263-.111-.263-.111a3.023 3.023 0 0 1 1.629.266s1.241-.397 1.229-.475zM170.492 64.221s-6.979-.78-6.402 4.185c0 0-.208.861.553 1.294 0 0 .031-.37.737-.206.249.056.504.082.759.076.344-.005.678-.124.949-.338 0 0 2.01-.715 2.938-3.902 0 0 .601-.676.588-.857l-1.207.445s.369.876 0 1.571c0 0 .039-1.538-.184-1.512-.046 0-.628.265-.628.265s.619 1.524.04 2.587c0 0 .291-1.824-.263-2.484l-.857.445s.737 1.58.122 2.808c0 0 .237-1.918-.303-2.698l-.783.554s.686 1.554.168 2.571c0 0 .053-2.244-.339-2.432 0 0-.687.554-.801.783 0 0 .468 1.128.114 1.691 0 0-.124-1.502-.286-1.517 0 0-.707.956-.81 1.63.063-.625.29-1.223.655-1.733a1.96 1.96 0 0 0-1.031.47s.136-.694 1.205-.701c0 0 .582-.723.737-.76 0 0-1.056-.144-1.714.109 0 0 .599-.63 1.916-.263l.774-.57s-1.385-.263-1.988-.082c0 0 .711-.554 2.196-.048l.835-.444s-1.177-.317-1.89-.26c0 0 .768-.37 2.133.142l.593-.233s-.864-.216-1.118-.255c-.254-.039-.263-.11-.263-.11a3.01 3.01 0 0 1 1.628.264s1.246-.405 1.227-.485zM181.162 70.76s-6.979-.778-6.403 4.185c0 0-.206.86.553 1.293 0 0 .031-.37.737-.203.249.054.503.08.757.074.343-.007.675-.125.945-.336 0 0 2.009-.716 2.937-3.904 0 0 .603-.674.588-.858l-1.207.446s.369.876 0 1.571c0 0 .039-1.536-.184-1.512-.046 0-.628.264-.628.264s.619 1.525.04 2.588c0 0 .291-1.824-.263-2.482l-.857.443s.737 1.58.122 2.808c0 0 .237-1.919-.303-2.697l-.783.555s.686 1.554.17 2.572c0 0 .052-2.245-.341-2.434 0 0-.687.555-.801.784 0 0 .468 1.127.114 1.691 0 0-.124-1.502-.286-1.517 0 0-.707.955-.809 1.63.064-.625.29-1.223.655-1.734a1.978 1.978 0 0 0-1.032.472s.138-.695 1.207-.7c0 0 .58-.724.737-.762 0 0-1.056-.143-1.714.11 0 0 .599-.632 1.916-.264l.774-.57s-1.385-.263-1.988-.082c0 0 .711-.555 2.196-.047l.835-.445s-1.177-.318-1.89-.26c0 0 .768-.37 2.133.142l.593-.231s-.864-.216-1.116-.257c-.253-.04-.266-.111-.266-.111a3.023 3.023 0 0 1 1.629.266s1.251-.408 1.233-.488zM157.474 15.68s-5.623-4.219-7.633.352c0 0-.614.638-.174 1.4 0 0 .21-.297.737.197.187.174.394.325.616.45.301.169.648.234.989.186 0 0 2.093.404 4.505-1.87 0 0 .858-.278.939-.44l-1.265-.23s-.133.937-.787 1.357c0 0 .809-1.305.599-1.4-.043-.02-.674-.092-.674-.092s-.238 1.63-1.27 2.246c0 0 1.174-1.425 1.028-2.275l-.963-.052s-.164 1.735-1.314 2.482c0 0 1.175-1.532 1.105-2.478l-.954.077s-.184 1.688-1.153 2.301c0 0 1.179-1.907.936-2.27 0 0-.872.124-1.087.269 0 0-.166 1.208-.756 1.515 0 0 .652-1.358.52-1.453 0 0-1.093.464-1.522.993a3.598 3.598 0 0 1 1.441-1.16 1.98 1.98 0 0 0-1.128-.119s.47-.529 1.395.01c0 0 .864-.328 1.011-.287 0 0-.838-.66-1.533-.775 0 0 .837-.24 1.786.74l.956-.098s-1.061-.925-1.673-1.08c0 0 .89-.113 1.916 1.074l.945.043s-.855-.873-1.498-1.187c0 0 .848.074 1.767 1.207l.629.102s-.636-.625-.835-.788c-.199-.162-.17-.216-.17-.216.512.228.951.594 1.268 1.057 0 0 1.277.289 1.301.213zM161.818 46.144s-1.938-6.77-6.297-4.34c0 0-.873.135-.982 1.011 0 0 .346-.109.466.599.044.254.119.502.221.74.137.318.374.582.674.753 0 0 1.426 1.59 4.717 1.235 0 0 .851.3 1.013.218l-.871-.95s-.669.669-1.443.606c0 0 1.43-.554 1.319-.752-.022-.04-.482-.482-.482-.482s-1.168 1.157-2.362 1.022c0 0 1.792-.425 2.187-1.19l-.737-.625s-1.176 1.282-2.541 1.183c0 0 1.857-.512 2.369-1.309l-.807-.516s-1.17 1.23-2.305 1.137c0 0 2.088-.808 2.114-1.242 0 0-.77-.429-1.03-.444 0 0-.861.862-1.515.75 0 0 1.338-.689 1.29-.844 0 0-1.15-.29-1.811-.13a3.583 3.583 0 0 1 1.842-.053 1.974 1.974 0 0 0-.829-.776s.693-.139 1.106.85c0 0 .886.263.978.385 0 0-.271-1.034-.755-1.546 0 0 .81.315.974 1.675l.822.5s-.287-1.385-.685-1.873c0 0 .777.449.882 2.016l.737.604s-.156-1.212-.481-1.848c0 0 .632.573.684 2.033l.438.462s-.129-.883-.184-1.135c-.055-.25 0-.286 0-.286a3.04 3.04 0 0 1 .378 1.612s.84.994.906.95zM118.628 61.4s-3.764-5.948-7.259-2.389c0 0-.8.37-.66 1.248 0 0 .304-.203.618.444.112.229.252.444.416.64.22.266.521.453.857.531 0 0 1.815 1.124 4.873-.148 0 0 .901.049 1.034-.075l-1.106-.666s-.455.832-1.216.99c0 0 1.22-.925 1.056-1.095-.032-.033-.599-.325-.599-.325s-.798 1.438-1.981 1.647c0 0 1.601-.915 1.767-1.762l-.882-.39s-.769 1.562-2.106 1.848c0 0 1.64-1.014 1.907-1.924l-.921-.266s-.778 1.51-1.893 1.741c0 0 1.776-1.364 1.679-1.789 0 0-.859-.194-1.106-.135 0 0-.584 1.07-1.243 1.148 0 0 1.09-1.039 1-1.175 0 0-1.184.046-1.774.388a3.579 3.579 0 0 1 1.758-.573 1.978 1.978 0 0 0-1.012-.512s.625-.327 1.29.504c0 0 .921 0 1.048.093 0 0-.553-.924-1.159-1.27 0 0 .866.074 1.404 1.333l.931.247s-.666-1.247-1.183-1.604c0 0 .871.21 1.411 1.687l.87.37s-.49-1.118-.982-1.641c0 0 .766.37 1.225 1.758l.553.32s-.369-.812-.5-1.036c-.13-.223-.079-.275-.079-.275.399.395.68.893.813 1.44 0 0 1.101.735 1.151.672z" opacity=".1"/>
        <path fill="#0BA9E0" d="M143.366 31.01s-3.58-6.06-7.185-2.612c0 0-.811.351-.697 1.227 0 0 .308-.195.603.46.105.234.238.454.396.655.212.273.507.468.84.555 0 0 1.778 1.179 4.875 0 0 0 .899.075 1.036-.045l-1.082-.698s-.479.815-1.245.95c0 0 1.247-.893 1.09-1.061-.033-.035-.589-.346-.589-.346s-.842 1.414-2.027 1.586c0 0 1.629-.865 1.819-1.704l-.87-.41s-.816 1.539-2.163 1.785c0 0 1.671-.963 1.966-1.863l-.91-.296s-.826 1.479-1.946 1.682c0 0 1.817-1.309 1.732-1.736 0 0-.851-.221-1.105-.17 0 0-.618 1.052-1.279 1.11 0 0 1.122-1.002 1.037-1.143 0 0-1.186.01-1.785.333a3.586 3.586 0 0 1 1.774-.518 1.977 1.977 0 0 0-.997-.543s.636-.309 1.29.543c0 0 .921.032 1.045.126 0 0-.522-.924-1.119-1.305 0 0 .863.1 1.362 1.375l.921.277s-.624-1.268-1.133-1.64c0 0 .866.238 1.36 1.73l.856.4s-.455-1.133-.921-1.663c0 0 .754.393 1.172 1.794l.54.337s-.346-.823-.468-1.05c-.122-.227-.07-.277-.07-.277.386.407.652.914.768 1.464 0 0 1.056.752 1.109.69zM120.717 43.754s.185-7.042-4.692-6.05c0 0-.874-.135-1.242.667 0 0 .368 0 .265.712a3.32 3.32 0 0 0-.011.765c.034.346.179.67.415.924 0 0 .879 1.949 4.123 2.61 0 0 .72.545.901.516l-.553-1.168s-.838.432-1.558.138c0 0 1.529-.09 1.486-.316 0-.046-.316-.608-.316-.608s-1.463.749-2.56.257c0 0 1.843.139 2.445-.47l-.514-.818s-1.507.865-2.778.355c0 0 1.925.077 2.655-.527l-.614-.74s-1.487.818-2.54.385c0 0 2.233-.135 2.395-.543 0 0-.605-.642-.848-.74 0 0-1.079.555-1.669.255 0 0 1.474-.247 1.483-.412 0 0-1.008-.626-1.687-.672a3.58 3.58 0 0 1 1.777.51 1.986 1.986 0 0 0-.552-.993s.702.08.798 1.146c0 0 .768.521.818.665 0 0 .053-1.066-.255-1.702 0 0 .678.545.424 1.891l.632.728s.144-1.408-.087-1.994c0 0 .605.663.233 2.19l.51.797s.217-1.203.101-1.911c0 0 .428.739.037 2.145l.28.573s.142-.881.16-1.138c.019-.257.089-.274.089-.274a3.043 3.043 0 0 1-.127 1.65s.495 1.22.576 1.197z"/>
        <path fill="#0BA9E0" d="M128.78 133.233c2.74 0 4.962-.377 4.962-.841 0-.465-2.222-.841-4.962-.841-2.74 0-4.962.376-4.962.841 0 .464 2.222.841 4.962.841zM110.693 146c2.74 0 4.961-.376 4.961-.841 0-.464-2.221-.841-4.961-.841s-4.962.377-4.962.841c0 .465 2.222.841 4.962.841zM17.16 139.459c2.74 0 4.962-.376 4.962-.841 0-.464-2.221-.841-4.962-.841-2.74 0-4.961.377-4.961.841 0 .465 2.221.841 4.961.841zM148.326 145.158c2.74 0 4.962-.376 4.962-.84 0-.465-2.222-.841-4.962-.841-2.74 0-4.961.376-4.961.841 0 .464 2.221.84 4.961.84z" opacity=".1"/>
        <path fill="#0BA9E0" d="M153.492 134.905c4.092 0 7.409-.562 7.409-1.257 0-.694-3.317-1.256-7.409-1.256-4.091 0-7.408.562-7.408 1.256 0 .695 3.317 1.257 7.408 1.257z"/>
        <path fill="#0BA9E0" d="M156.564 131.591c.338-.276.584-.648.705-1.068.092-.425-.088-.934-.492-1.089-.453-.174-.937.14-1.306.458-.368.318-.787.682-1.268.616a1.944 1.944 0 0 0 .597-1.813.759.759 0 0 0-.165-.37c-.253-.27-.708-.153-1.01.059-.958.677-1.225 1.982-1.231 3.157-.096-.423-.015-.865-.016-1.294-.002-.429-.122-.924-.489-1.149a1.45 1.45 0 0 0-.737-.185c-.431-.015-.912.028-1.205.344-.368.391-.27 1.051.047 1.478.316.427.801.703 1.247 1.002.357.214.661.505.892.852a.888.888 0 0 1 .064.152h2.701a7.485 7.485 0 0 0 1.666-1.15z"/>
        <path fill="#A8A8A8" d="M13.83 134.709s2.827-.087 3.684-.697c.857-.61 4.354-1.336 4.566-.359.212.978 4.252 4.859 1.057 4.885-3.195.026-7.423-.499-8.274-1.02-.851-.521-1.034-2.809-1.034-2.809z"/>
        <path fill="#000" d="M23.19 138.198c-3.194.026-7.423-.499-8.274-1.02-.648-.395-.906-1.817-.993-2.473h-.094s.184 2.29 1.03 2.809c.846.52 5.08 1.047 8.275 1.021.92 0 1.24-.337 1.223-.825-.13.298-.481.483-1.166.488z" opacity=".2"/>
    </g>
    <defs>
        <linearGradient id="b" x1="41.084" x2="98.592" y1="80.108" y2="80.108" gradientUnits="userSpaceOnUse">
            <stop stop-color="gray" stop-opacity=".25"/>
            <stop offset=".54" stop-color="gray" stop-opacity=".12"/>
            <stop offset="1" stop-color="gray" stop-opacity=".1"/>
        </linearGradient>
        <clipPath id="a">
            <path fill="#fff" d="M0 0h186v146H0z"/>
        </clipPath>
    </defs>
</svg>
