<svg xmlns="http://www.w3.org/2000/svg" width="368" height="394" fill="none" viewBox="0 0 368 394">
    <g clip-path="url(#a)">
        <path fill="#E7F6FC" d="M32.963 242.18s.892-39.004-15.78-72.869C.51 135.457 42.1 66.586 91.193 63.34 140.288 60.093 154.305-9.8 225.41 1.16c71.105 10.961 104.8 63.511 95.141 108.837-9.658 45.327-5.53 122.253 10.57 157.1 16.091 34.846 27.002 100.511-45.246 92.405-72.247-8.105-127.823-88.698-177.788-92.405-49.965-3.708-65.946 10.85-75.123-24.918z"/>
        <path fill="#0BA9E0" d="M333.615 262.217c-.471 1.423-1.342 3.076-2.505 4.889-8.055 12.544-30.347 32.342-34.836 31.54a2.03 2.03 0 0 1-.351-.09c-3.336-1.092-4.959-8.967-9.858-16.501a34.982 34.982 0 0 0-3.978-5.08 28.657 28.657 0 0 0-5.11-4.258c-.491-.331-.771-.741-.861-1.212-.401-2.024 2.635-5.06 6.803-5.982 5.139-1.142 19.757-10.159 20.899-11.872.111-.151.151-.381.161-.682 0-.3-.03-.671-.121-1.092-.591-3.096-3.246-9.027-4.438-12.153-.24-.621-.421-1.132-.511-1.493-.09-.34-.09-.711 0-1.122.551-2.755 4.779-6.652 9.308-5.911 0 0 .531.571 1.362 1.433 2.305 2.404 6.913 7.103 8.517 7.995.08.04.17.1.29.16 1.613.882 6.703 3.717 10.67 7.795 3.607 3.707 6.302 8.436 4.559 13.636z"/>
        <path fill="#000" d="M329.046 248.581c-.861 1.894-2.995 1.503-5.52 1.914-3.407.561-6.863-.1-6.923-3.527-.04-2.445 1.112-4.939 1.773-6.172 1.613.882 6.703 3.717 10.67 7.785z" opacity=".25"/>
        <path fill="#47131C" d="M339.286 234.134c-.411 1.443-2.204 2.796-4.348 3.988-2.645 1.463-5.831 2.675-7.665 3.457-.561.24-.992.44-1.242.601 1.142-3.597 2.745-3.086 3.937-4.338 1.202-1.253 1.032-2.575.17-2.856-.851-.29-.801.742-1.713.571-.912-.17.922-2.114 1.032-2.915 0 0-3.707 1.593-7.935-1.263-1.663-1.122-2.575-2.134-3.066-2.945-.761-1.253-.531-2.024-.531-2.024s-3.476.851-4.338-3.427c-.261-1.312-.23-2.735.16-4.047.872-2.986 3.547-5.431 8.577-4.8 7.253.912 9.428 8.166 9.428 8.166s3.827-1.543 5.881 1.603c2.054 3.136-1.142 5.941-1.142 5.941s3.877.511 2.795 4.288z"/>
        <path fill="url(#b)" d="M329.978 237.841c-1.192 1.252-2.795.741-3.937 4.338a9.17 9.17 0 0 1-.491.12c-1.543.361-4.529.812-6.503-.661-.711-.531-1.292-1.303-1.623-2.435-.651-2.204-.33-5.09.181-7.494.27-1.283.601-2.425.861-3.266.491.811 1.403 1.813 3.066 2.945 4.228 2.856 7.935 1.263 7.935 1.263 0 .04-.01.08-.03.13v.01c-.27.862-1.853 2.605-.992 2.765.922.171.862-.861 1.713-.571.842.291 1.022 1.603-.18 2.856z"/>
        <path fill="url(#c)" d="M325.54 242.311c-.361 2.464.22 3.797-1.062 5.33-.251.3-.622.521-1.052.661-2.215.742-6.202-.411-5.631-1.773.371-.892.761-2.315 1.032-3.697.08-.401.15-.802.21-1.183 1.974 1.473 4.96 1.022 6.503.662z"/>
        <path fill="#000" d="M329.457 232.651c0 .04-.01.08-.03.13v.01c-.872 1.363-3.697 2.094-7.514 1.433-2.134-.361-3.477-1.453-4.318-2.515.27-1.283.601-2.425.861-3.266.491.811 1.403 1.813 3.066 2.945 4.228 2.856 7.935 1.263 7.935 1.263zM325.54 242.309c-.361 2.465.22 3.797-1.062 5.33-.251.301-.622.521-1.052.661.03-.09.07-.18.1-.28 1.072-3.166-3.096-4.719-4.699-5.2.08-.401.15-.802.21-1.182 1.974 1.483 4.96 1.032 6.503.671z" opacity=".25"/>
        <path fill="#000" d="M334.938 238.121c-2.645 1.463-5.831 2.675-7.665 3.457-.561.24-.992.441-1.242.601 1.142-3.597 2.745-3.086 3.937-4.338 1.202-1.253 1.032-2.575.17-2.856-.851-.29-.801.742-1.713.571-.912-.17.922-2.114 1.032-2.915 0 0-3.707 1.593-7.935-1.263-1.663-1.122-2.575-2.134-3.066-2.945-.761-1.253-.531-2.024-.531-2.024s-3.476.852-4.338-3.427c-.261-1.312-.23-2.735.16-4.047.361 1.112 1.102 2.434 2.635 3.136-.461-2.966 2.746-5.541 5.801-3.828 2.986 1.674-.39 6.463-.541 6.673.121-.05 1.924-.952 2.295-2.505 1.122 2.114-.411 4.739-.411 4.739s2.525 3.076 6.612 2.174c3.076-.691 3.597-2.053 3.597-2.053s1.373 4.398-1.252 6.452c1.833.21 3.457 2.174 2.455 4.398z" opacity=".25"/>
        <path fill="url(#d)" d="M308.207 231.209c-4.529-.742-8.757 3.156-9.308 5.911 0 0-7.304-8.476-8.216-12.353-.911-3.888-.691-32.362-.691-32.362s-.12-10.811-.681-14.347c.911-2.175 4.108 4.107 4.789 7.875.691 3.777-1.022 6.472-1.022 6.472l7.083 29.386 8.046 9.418z"/>
        <path fill="url(#e)" d="M312.084 255.645c-.03 2.895-.411 7.915-2.445 11.171-21.07-2.565-38.453-13.015-47.45-22.954-7.444-.691-13.956-3.897-15.67-6.742 1.373-1.303 13.526.36 14.217 0 .692-.361 1.714-2.936 2.575-2.936.852 0 .511 3.938.511 3.938s6.392 4.909 17.063 9.157h.01s.02.01.03.01a84.247 84.247 0 0 0 6.983 2.445c6.943 2.114 15.109 3.657 24.116 3.627.01 0 .08.901.06 2.284z"/>
        <path fill="#000" d="M331.12 267.107c-8.055 12.544-30.347 32.342-34.836 31.54-4.368-.781-5.741-12.804-14.187-21.661-.451-3.557 3.477-4.449 10.189-.261 9.709 6.052 21.812-1.202 17.363-9.908-.01-.011 12.174 4.157 21.471.29z" opacity=".25"/>
        <g fill="#fff" opacity=".25">
            <path d="M329.046 253.541c.411 1.253-8.376 2.665-16.972 2.104.02-1.382-.04-2.274-.04-2.274 4.769.852 17.012.17 17.012.17z" opacity=".25"/>
            <path d="M312.084 255.646c-1.493-.1-2.976-.25-4.408-.481-5.671-.901-13.917-3.456-19.748-5.42 6.943 2.114 15.109 3.657 24.116 3.627-.01-.01.06.892.04 2.274z" opacity=".25"/>
        </g>
        <path fill="#143A62" d="M295.923 298.557c-2.084 5.089-6.783 12.473-16.631 13.225-.882.07-1.764.02-2.625-.13a13.101 13.101 0 0 1-2.856-.842c-9.698-4.078-17.683-19.607-20.829-26.511-.942-2.053-1.443-3.346-1.443-3.346s-32.502 32.081-38.874 36.129c-.411.26-.712.401-.892.421-2.535.19-4.739-.451-4.609-2.625a4.65 4.65 0 0 1 .271-1.253c1.142-3.196 24.897-58.01 41.108-59.042 13.636-.862 23.876 11.852 27.272 16.521v.01c.11.151.21.281.301.411.471.651.761 1.082.861 1.212a28.704 28.704 0 0 1 5.11 4.259c1.543 1.613 2.845 3.336 3.978 5.079 4.899 7.515 6.532 15.39 9.858 16.482z"/>
        <path fill="#143A62" d="M273.821 310.8c-9.818 9.548-29.386 20.619-29.386 20.619s-25.057 35.898-31.349 42.561c-.662.701-1.113 1.072-1.313 1.062-.581-.07-1.182.05-1.783.22-1.543.401-3.136 1.092-4.609-.22-2.054-1.824 16.672-42.711 19.868-50.246 2.174-5.119 15.419-23.645 23.695-34.986a1110.36 1110.36 0 0 1 4.048-5.521c3.146 6.903 11.131 22.433 20.829 26.511z"/>
        <path fill="#000" d="M295.923 298.556c-2.084 5.09-6.783 12.474-16.631 13.225-.882.071-1.764.02-2.625-.13 4.158-6.021 1.232-13.095 2.625-21.621 1.072-6.593-1.293-13.906-3.487-18.926.11.15.21.28.301.411.47.651.761 1.082.861 1.212a28.657 28.657 0 0 1 5.11 4.258c1.543 1.613 2.845 3.337 3.978 5.08 4.909 7.524 6.542 15.399 9.868 16.491zM273.821 310.799c-9.818 9.549-29.386 20.62-29.386 20.62s-30.598 43.843-32.662 43.623c-.581-.07-1.182.05-1.783.22 9.307-19.387 35.327-55.876 38.323-63.451 2.424-6.111 1.422-16.451.621-21.992a1104.65 1104.65 0 0 1 4.048-5.52c3.156 6.893 11.141 22.423 20.839 26.5z" opacity=".25"/>
        <path fill="#47131C" d="M215.26 387.315c-4.87-.972-23.124 6.683-26.21 6.683-3.076 0-6.162-2.966 0-6.342 6.162-3.377 16.331-12.624 16.331-12.624 1.473 1.312 3.076.621 4.609.22.601-.16 1.202-.28 1.783-.22.2.02.651-.361 1.313-1.062.37 4.057 4.739 13.856 2.174 13.345zM214.228 324.105c-.511 3.086-25.348 11.301-22.954 5.671 2.395-5.641 15.87-14.919 15.87-14.919h.01c-.13 2.184 2.074 2.826 4.609 2.625.18-.01.481-.16.892-.421.29 2.265 2.004 4.479 1.573 7.044z"/>
        <path fill="#fff" d="M289.711 125.97v98.687c0 7.044-5.7 12.745-12.744 12.745H70.645c-7.044 0-12.755-5.701-12.755-12.745V125.97c0-7.034 5.711-12.745 12.754-12.745h206.323c7.044 0 12.744 5.701 12.744 12.745z"/>
        <path fill="#0BA9E0" d="M123.866 201.434v-6.893a3.092 3.092 0 0 0-3.096-3.096h-17.674a3.092 3.092 0 0 1-3.096-3.096v-6.282c0-.541.141-1.062.401-1.533l18.706-32.882a3.077 3.077 0 0 1 2.685-1.563h13.315a3.091 3.091 0 0 1 3.096 3.096v27.442a3.092 3.092 0 0 0 3.096 3.096 3.091 3.091 0 0 1 3.096 3.096v5.53a3.092 3.092 0 0 1-3.096 3.096 3.092 3.092 0 0 0-3.096 3.096v6.893a3.092 3.092 0 0 1-3.096 3.096h-8.165a3.087 3.087 0 0 1-3.076-3.096zm-3.096-21.701a3.092 3.092 0 0 0 3.096-3.096v-6.933c0-3.407.26-7.114.491-10.791h-.321c-1.643 3.547-3.146 6.963-5.1 10.72l-5.109 9.909-.05.181h6.993v.01z"/>
        <path fill="#143A62" d="M195.202 175.144c0 18.304-7.485 30.297-21.481 30.297-15.991 0-21.471-15.229-21.471-29.957 0-15.74 6.111-30.297 21.641-30.297 16.562 0 21.311 15.97 21.311 29.957zm-27.453.17c-.09 12.914 2.164 18.064 6.202 18.064 3.727 0 5.761-5.32 5.761-18.064 0-12.233-1.944-18.024-5.811-18.024-3.827 0-6.202 5.189-6.152 18.024z"/>
        <path fill="#0BA9E0" d="M227.062 201.434v-6.893a3.091 3.091 0 0 0-3.096-3.096h-17.673a3.091 3.091 0 0 1-3.096-3.096v-6.282c0-.541.14-1.062.401-1.533l18.705-32.882a3.077 3.077 0 0 1 2.685-1.563h13.316a3.091 3.091 0 0 1 3.096 3.096v27.442a3.091 3.091 0 0 0 3.095 3.096 3.09 3.09 0 0 1 3.096 3.096v5.53a3.091 3.091 0 0 1-3.096 3.096 3.091 3.091 0 0 0-3.095 3.096v6.893a3.092 3.092 0 0 1-3.096 3.096h-8.166c-1.683 0-3.076-1.383-3.076-3.096zm-3.086-21.701a3.091 3.091 0 0 0 3.096-3.096v-6.933c0-3.407.261-7.114.491-10.791h-.32c-1.644 3.547-3.146 6.963-5.1 10.72l-5.11 9.909-.05.181h6.993v.01z"/>
        <path fill="#143A62" d="M337.192 70.664h-70.635a4.308 4.308 0 0 0-4.308 4.308v59.854a4.308 4.308 0 0 0 4.308 4.308h29.497v10.34c0 2.184 2.775 3.116 4.097 1.382l8.957-11.722h28.094a4.308 4.308 0 0 0 4.308-4.308V74.972a4.317 4.317 0 0 0-4.318-4.308z" opacity=".85"/>
        <path fill="#fff" d="M297.005 110.119a1.251 1.251 0 0 1 0-1.773l7.956-7.955a1.25 1.25 0 0 1 1.773 0 1.251 1.251 0 0 1 0 1.773l-7.955 7.955a1.252 1.252 0 0 1-1.774 0z"/>
        <path fill="#fff" d="M297.005 100.391a1.252 1.252 0 0 1 1.774 0l7.955 7.955a1.251 1.251 0 0 1 0 1.773 1.251 1.251 0 0 1-1.773 0l-7.956-7.955a1.251 1.251 0 0 1 0-1.773z"/>
        <path fill="#0BA9E0" d="M4.308 289.08h70.635a4.308 4.308 0 0 0 4.308-4.308v-59.854a4.308 4.308 0 0 0-4.308-4.308H45.447v-10.34c0-2.184-2.776-3.116-4.098-1.383l-8.957 11.723H4.308A4.308 4.308 0 0 0 0 224.918v59.854a4.308 4.308 0 0 0 4.308 4.308z" opacity=".85"/>
        <path fill="#fff" d="M44.495 249.614c.49.491.49 1.283 0 1.774l-7.956 7.955a1.252 1.252 0 0 1-1.773 0 1.252 1.252 0 0 1 0-1.774l7.955-7.955a1.252 1.252 0 0 1 1.774 0z"/>
        <path fill="#fff" d="M44.495 259.352a1.252 1.252 0 0 1-1.774 0l-7.955-7.955a1.251 1.251 0 0 1 0-1.773 1.252 1.252 0 0 1 1.773 0l7.956 7.955c.49.481.49 1.282 0 1.773z"/>
        <path fill="#143A62" d="M213.226 135.376c-5.26 5.26-13.887 4.949-18.756-.682l-33.534-38.793a9.082 9.082 0 0 1 .451-12.364c3.367-3.366 8.767-3.567 12.364-.45l38.794 33.533c5.63 4.869 5.951 13.496.681 18.756z"/>
        <path fill="#0BA9E0" d="M205.08 273.909c-5.26 5.26-13.886 4.949-18.755-.681l-33.534-38.794a9.081 9.081 0 0 1 .451-12.364c3.366-3.366 8.766-3.566 12.363-.451l38.794 33.534c5.631 4.87 5.941 13.486.681 18.756zM149.885 80.572a7.354 7.354 0 1 0 0-14.708 7.354 7.354 0 0 0 0 14.708z"/>
        <path fill="url(#f)" d="M116.311 36.488a7.354 7.354 0 1 0 0-14.708 7.354 7.354 0 0 0 0 14.708z"/>
        <path fill="url(#g)" d="M360.376 290.09a7.355 7.355 0 1 0-.001-14.71 7.355 7.355 0 0 0 .001 14.71z"/>
        <path fill="#143A62" d="M171.937 282.736a7.36 7.36 0 0 1-7.354 7.354 7.36 7.36 0 0 1-7.354-7.354 7.36 7.36 0 0 1 7.354-7.354 7.358 7.358 0 0 1 7.354 7.354zM100.872 306.141c-4.338 4.338-11.452 4.077-15.47-.561L57.75 273.589a7.5 7.5 0 0 1 .37-10.2 7.5 7.5 0 0 1 10.2-.37l31.991 27.652c4.639 4.018 4.899 11.131.561 15.47z"/>
        <path fill="#0BA9E0" d="M352.04 94.69c-4.338 4.338-11.452 4.077-15.469-.562l-27.653-31.99a7.5 7.5 0 0 1 .371-10.2 7.5 7.5 0 0 1 10.199-.37l31.991 27.652c4.639 4.017 4.899 11.131.561 15.47z"/>
        <path fill="url(#h)" d="M72.688 80.872c-.721 2.374-4.508 8.126-7.574 12.544-2.234 3.216-4.078 5.73-4.078 5.73s-10.39 1.373-10.28.682c.12-.681 13.707-24.436 13.707-24.436l.06.04c.51.29 2.465 1.292 4.659 2.755 1.162.781 2.394 1.683 3.506 2.685z"/>
        <path fill="#0BA9E0" d="M54.874 138.883s-.751 1.433-2.023 3.877a9016.492 9016.492 0 0 1-5.932 11.342c-6.382 12.183-15.128 28.855-20.449 38.894-1.963 3.687-3.456 6.492-4.208 7.835-.26.471-.43.771-.5.862-.351.48-.872.711-1.453.741-1.343.07-2.956-.962-3.116-2.565-.15-1.573 9.508-41.329 15.55-65.935 1.252-5.13 2.354-9.599 3.175-12.925.962-3.897 1.533-6.232 1.533-6.232.601.922 1.443 2.144 2.425 3.547 2.565 3.647 6.111 8.526 9.117 12.624 3.256 4.418 5.881 7.935 5.881 7.935z"/>
        <path fill="#0BA9E0" d="M58.862 120.268c-.47 2.756.4 40.057-1.182 51.518-.32 2.315-.742 3.577-1.293 3.287a.759.759 0 0 1-.22-.171c-1.483-1.362-5.64-9.327-10.03-19.366-4.227-9.679-8.686-21.261-11.18-30.739-1.964-7.434-2.716-13.556-1.223-16.411 3.006-5.771 16.391-11.121 27.833-14.768 1.473-.471 2.906-.912 4.288-1.323a241.983 241.983 0 0 1 10.871-2.956c1.403-.35 2.234-.54 2.304-.56 0 0 13.085-5.852 20.77-.341 2.705 1.944 4.739 5.29 5.31 10.8 2.184 21.191-45.677 17.724-46.248 21.03z"/>
        <path fill="#143A62" d="M108.086 73.219c-.03.18-.09.36-.161.54v.01c-.02.06-.05.121-.08.171-.02.04-.04.09-.07.13-.12.24-.28.471-.461.712-.04.06-.09.11-.13.17-.341.4-.751.802-1.222 1.182-.07.06-.141.12-.221.17-.08.07-.17.13-.26.2-.291.221-.591.432-.912.632-.14.1-.301.19-.451.28-.01.01-.03.02-.04.02-.06.03-.12.07-.17.1l-.241.151c-.06.03-.12.07-.18.1a13.581 13.581 0 0 1-.601.331c-.201.11-.401.22-.601.32-.401.211-.802.401-1.183.592-.19.09-.38.18-.571.26-.17.08-.34.15-.501.23l-.21.09c-.13.061-.26.111-.39.171-.191.08-.371.16-.552.23-.08.03-.16.06-.23.09-.782.321-1.303.502-1.393.532h-.01s.29.751.681 1.813c.03.09.07.18.1.27.271.742.582 1.614.862 2.486.04.11.07.22.11.33.07.22.14.43.21.641.05.17.111.351.161.511l.03.11c.08.281.16.552.23.802.03.12.06.24.09.35.06.251.121.472.151.682.451 2.355 1.002 8.757.812 9.769l-.01.05c-.231.801-12.654-11.252-20.93-9.709-.27.05-.491.06-.672.04-.971-.09-.831-1.082-.44-2.324.38-1.202 1.002-2.645 1.122-3.767.26-2.515-3.266-9.819-3.266-9.819s-1.293 3.176-2.445 5.57c-.521 1.093-1.012 2.025-1.333 2.425-1.112-1.002-2.344-1.903-3.506-2.685-2.195-1.463-4.148-2.475-4.66-2.755l-.06-.04c-.16-.09.07-1.383.502-3.286 1.152-5.04 3.707-14.398 4.288-17.384.801-4.107 4.208-12.784 12.273-14.838 5.19-1.322 11.793-.06 18.345 11.823 2.525 4.588 5.05 10.75 7.474 18.946.231.851.481 1.703.722 2.575z"/>
        <path fill="#000" d="M58.862 120.267c-.47 2.756.4 40.057-1.182 51.518-.32 2.315-.742 3.577-1.293 3.287a.777.777 0 0 1-.22-.171c.02-14.347-6.763-54.313-.39-59.673 7.193-6.052 32.2-11.192 30.718-15.87-1.343-4.229-8.266-7.986-9.759-10.02 1.403-.35 2.234-.54 2.304-.56-.971-.09-.831-1.083-.44-2.325 2.264-1.533 5.61-3.427 6.402-5.821 1.252-3.777.57-22.042 4.679-22.954.801 5.37 6.853 19.988 6.853 19.988l3.426 1.874c-1.573.691-2.735 1.092-2.735 1.092s2.064 5.32 2.585 7.815c2.705 1.943 4.739 5.29 5.31 10.8 2.174 21.181-45.687 17.714-46.258 21.02z" opacity=".25"/>
        <path fill="#B72521" d="M76.546 43.471s-.772 6.453 2.534 6.913c3.317.461 4.339-7.043 3.768-8.806-.571-1.754-1.553-2.215-3.116-1.303-1.563.912-3.126 2.234-3.186 3.196z"/>
        <path fill="url(#i)" d="M76.335 38.021c.28.952-.5 3.697-1.823 5.49-.882 1.193-2.004 1.964-3.196 1.483-4.429-1.773-7.174-5.14-8.697-7.654-1.112-1.834-1.573-3.216-1.573-3.216.491.14.992.19 1.503.17 2.986-.11 5.971-2.645 6.853-2.575.37.03.882.43 1.413.892.932.821 1.944 1.853 2.404 1.412.722-.69-.51-1.843.3-2.995.813-1.162 2.486-1.323 2.916.34.431 1.674-.3 1.293-.51 2.826-.07.52-.1.952-.09 1.352 0 .1.01.19.02.29.03.652.21 1.273.48 2.185z"/>
        <path fill="url(#j)" d="M78.88 47.328c-1.112 0-.46.23-1.312-1.142-.411-.651-1.333-1.433-2.184-2.064-.311-.23-.612-.44-.872-.611 1.322-1.784 2.114-4.539 1.823-5.49-.27-.912-.45-1.534-.51-2.185v-.02c.35.912.8 1.593 1.302 2.124.731.782 1.553 1.263 2.294 1.684.872.5 1.613.941 1.934 1.713.781 1.873-1.363 5.991-2.475 5.991z"/>
        <path fill="#47131C" d="M80.593 30.797c-.34.501-.64.992-.911 1.453-1.964 3.316-2.535 5.68-2.535 5.68a6.196 6.196 0 0 1-1.303-2.123v.02c-.01-.1-.01-.19-.02-.29-.01-.401.01-.832.09-1.353.21-1.533.942-1.152.511-2.826-.43-1.663-2.103-1.503-2.915-.34-.812 1.162.43 2.314-.3 2.995-.732.682-2.786-2.234-3.818-2.314-.872-.07-3.857 2.465-6.853 2.575-.5.02-1.012-.03-1.503-.17-8.145-.942-8.456-7.755-5.871-13.516 2.104-4.71 6.142-8.717 9.408-8.296-.772 2.054-.511 4.278 1.533 6.252 2.054 1.964 14.477 0 12.754 8.476 1.453-.5 3.106 1.723 1.733 3.777z"/>
        <path fill="url(#k)" d="M112.795 114.726c-.541.06-2.004.04-3.717-.1-3.146-.26-7.114-.902-7.675-2.124-.852-1.884-.771-6.943-.741-8.646.03-1.714 0-5.4 0-5.4l.01-.05c.19-1.003-.361-7.415-.812-9.77-.04-.21-.09-.43-.15-.68-.02-.12-.06-.231-.09-.351-.07-.25-.14-.521-.23-.802l-.03-.11c-.051-.17-.101-.34-.161-.511-.07-.21-.13-.42-.21-.641-.03-.11-.07-.22-.11-.33a133.84 133.84 0 0 0-.862-2.486c-.03-.1-.07-.19-.1-.27-.391-1.062-.682-1.814-.682-1.814h.01c.09-.03.611-.22 1.393-.53.07-.03.15-.06.23-.09.17-.07.35-.141.551-.231.13-.05.26-.11.391-.17l.21-.09c.161-.07.331-.141.501-.231.191-.08.381-.17.571-.26.391-.181.782-.371 1.183-.592.2-.1.4-.21.601-.32a13.447 13.447 0 0 0 .601-.33c.06-.031.12-.071.18-.101a3 3 0 0 1 .241-.14c.06-.03.12-.07.17-.11.01 0 .03-.01.04-.02.15-.09.301-.191.451-.281.311-.2.621-.411.912-.632.09-.06.17-.13.26-.2.07-.06.151-.12.221-.17.471-.38.881-.772 1.222-1.182.05-.06.09-.11.13-.17.181-.231.341-.472.461-.712.02-.04.05-.09.07-.13.03-.06.05-.12.08-.17v-.01c.071-.181.121-.361.161-.542 3.767 11.662-2.225 27.893-1.363 31.661.872 3.757 7.625 9.668 6.082 9.838z"/>
        <path fill="url(#l)" d="M108.086 73.218c-.03.18-.09.36-.161.54l.161-.54z"/>
        <path fill="#34124C" d="M23.805 210.479C19.958 212.623 0 219.737 0 216.31c0-3.426 17.183-16.441 17.183-16.441.23 2.284 3.426 3.426 4.568 1.823.07-.09.23-.381.501-.861.672 3.707 3.096 8.796 1.553 9.648zM64.413 182.225c-.682.692-.351.852-3.607 3.257-2.285 1.683-13.696 10.96-13.696 7.364 0-3.597 9.297-17.754 9.297-17.754.551.29.962-.972 1.293-3.286.641 4.117 7.394 9.728 6.713 10.419z"/>
        <path fill="#B72521" d="M74.02 78.448c-.52 1.092-1.011 2.024-1.332 2.425-3.206-2.876-7.384-5-8.155-5.44l-.06-.04c-.16-.09.07-1.383.5-3.287 2.245 1.042 7.375 3.647 9.048 6.342zM108.086 73.219c-.03.18-.09.36-.161.54v.011c-1.472 3.667-10.68 6.863-10.68 6.863s-.801-2.054-.691-2.966c.11-.831 7.795-3.376 10.8-7.013.241.842.491 1.693.732 2.565z"/>
        <path fill="#000" d="M34.255 163.72c1.834-11.702.22-22.573-1.533-29.797.822-3.366 1.583-6.452 2.245-9.117 2.494 9.468 6.953 21.06 11.18 30.738-6.301 12.033-14.577 27.803-19.697 37.452 1.714-4.769 5.39-13.867 7.805-29.276zM112.795 114.728c-.541.06-2.004.04-3.717-.101-2.245-2.795-4.519-7.594-3.948-15.369.411-5.54-.25-13.706-1.222-21.711-1.573-12.985-3.978-25.539-4.038-25.83 2.525 4.59 5.05 10.751 7.474 18.947.241.831.491 1.683.732 2.564 3.767 11.663-2.225 27.894-1.363 31.661.872 3.757 7.625 9.668 6.082 9.839zM76.466 72.878s-1.293 3.176-2.445 5.57c-.521 1.093-1.012 2.025-1.333 2.425-.67 2.184-3.917 7.214-6.813 11.442-1.382.41-2.825.852-4.288 1.323 2.956-3.928 5.53-9.87 7.605-15.45 2.925-7.865 4.859-15.008 5.44-14.848-.41 4.178 1.834 9.538 1.834 9.538zM70.795 32.61c-1.694 1.292-3.808 3.747-6.783 4.528-.531.14-.992.2-1.393.2-1.112-1.833-1.573-3.215-1.573-3.215.491.14.992.19 1.503.17 2.986-.11 5.971-2.645 6.853-2.575.36.03.862.42 1.393.892zM79.431 39.623c-1.963 1.233-3.346 3.287-4.047 4.499-.311-.23-.612-.44-.872-.611 1.322-1.784 2.114-4.539 1.823-5.49-.27-.912-.45-1.534-.51-2.185v-.02c.35.912.8 1.593 1.302 2.124.741.772 1.573 1.253 2.304 1.684z" opacity=".25"/>
        <path fill="#000" d="M79.682 32.25c-1.964 3.317-2.535 5.681-2.535 5.681a6.195 6.195 0 0 1-1.303-2.124v.02c-.01-.1-.01-.19-.02-.29-.01-.401.01-.832.09-1.353.21-1.533.942-1.152.511-2.825-.43-1.663-2.103-1.503-2.915-.34-.812 1.161.43 2.314-.3 2.995-.732.681-2.786-2.234-3.818-2.315-.872-.07-3.857 2.465-6.853 2.575-.5.02-1.012-.03-1.503-.17-8.145-.942-8.456-7.755-5.871-13.516-.591 2.755-.511 6.262 3.016 7.745-1.834-2.745-.772-7.474-.642-8.005-.08.5-.59 4.859 5.491 5.83 6.452 1.033 8.165-.8 8.165-.8s-7.293.69-8.155-2.165c4.038 1.373 10.16-1.483 12.554.742 2.394 2.234 1.373 5.77 1.373 5.77s2.474-.08 2.715 2.546z" opacity=".25"/>
    </g>
    <defs>
        <linearGradient id="b" x1="319.651" x2="334.126" y1="237.144" y2="226.952" gradientUnits="userSpaceOnUse">
            <stop stop-color="#FFB9A1"/>
            <stop offset="1" stop-color="#F97362"/>
        </linearGradient>
        <linearGradient id="c" x1="318.752" x2="329.032" y1="247.071" y2="238.847" gradientUnits="userSpaceOnUse">
            <stop stop-color="#FFB9A1"/>
            <stop offset="1" stop-color="#F97362"/>
        </linearGradient>
        <linearGradient id="d" x1="292.265" x2="302.2" y1="182.327" y2="245.534" gradientUnits="userSpaceOnUse">
            <stop stop-color="#FFB9A1"/>
            <stop offset="1" stop-color="#F97362"/>
        </linearGradient>
        <linearGradient id="e" x1="277.709" x2="284.218" y1="235.256" y2="276.66" gradientUnits="userSpaceOnUse">
            <stop stop-color="#FFB9A1"/>
            <stop offset="1" stop-color="#F97362"/>
        </linearGradient>
        <linearGradient id="f" x1="94.334" x2="145.037" y1="-22.234" y2="96.301" gradientUnits="userSpaceOnUse">
            <stop stop-color="#DEE8FF"/>
            <stop offset=".994" stop-color="#F5F8FF"/>
        </linearGradient>
        <linearGradient id="g" x1="347.752" x2="368.992" y1="204.13" y2="336.368" gradientUnits="userSpaceOnUse">
            <stop stop-color="#DEE8FF"/>
            <stop offset=".994" stop-color="#F5F8FF"/>
        </linearGradient>
        <linearGradient id="h" x1="57.35" x2="72.081" y1="100.363" y2="66.789" gradientUnits="userSpaceOnUse">
            <stop stop-color="#FFB9A1"/>
            <stop offset="1" stop-color="#F97362"/>
        </linearGradient>
        <linearGradient id="i" x1="64.105" x2="82.522" y1="40.687" y2="33.235" gradientUnits="userSpaceOnUse">
            <stop stop-color="#FFB9A1"/>
            <stop offset="1" stop-color="#F97362"/>
        </linearGradient>
        <linearGradient id="j" x1="80.992" x2="76.365" y1="53.45" y2="36.697" gradientUnits="userSpaceOnUse">
            <stop stop-color="#FFB9A1"/>
            <stop offset="1" stop-color="#F97362"/>
        </linearGradient>
        <linearGradient id="k" x1="109.873" x2="95.827" y1="123.253" y2="39.319" gradientUnits="userSpaceOnUse">
            <stop stop-color="#FFB9A1"/>
            <stop offset="1" stop-color="#F97362"/>
        </linearGradient>
        <linearGradient id="l" x1="107.92" x2="108.04" y1="73.226" y2="73.599" gradientUnits="userSpaceOnUse">
            <stop stop-color="#FF716E"/>
            <stop offset="1" stop-color="#EF5C54"/>
        </linearGradient>
        <clipPath id="a">
            <path fill="#fff" d="M0 0h367.73v394H0z"/>
        </clipPath>
    </defs>
</svg>
